HIERARCHY
ROOT hip
{
	OFFSET 0.000000 0.000000 0.000000 
	CHANNELS 6 Xposition Yposition Zposition Xrotation Zrotation Yrotation
	JOINT abdomen
	{
		OFFSET 0.000000 3.402643 0.000000 
		CHANNELS 3 Xrotation Zrotation Yrotation
		JOINT chest
		{
			OFFSET 0.000000 8.438565 -0.680529 
			CHANNELS 3 Xrotation Zrotation Yrotation
			JOINT neck
			{
				OFFSET 0.000000 10.207942 -0.272212 
				CHANNELS 3 Xrotation Zrotation Yrotation
				JOINT head
				{
					OFFSET 0.000000 3.130431 0.000000 
					CHANNELS 3 Xrotation Zrotation Yrotation
					End Site
					{
						OFFSET 0.000000 3.130435 0.000000 
					}
				}
			}
			JOINT lCollar
			{
				OFFSET 3.470700 6.669187 -0.816635 
				CHANNELS 3 Yrotation Zrotation Xrotation
				JOINT lShldr
				{
					OFFSET 3.198488 0.000000 0.000000 
					CHANNELS 3 Zrotation Yrotation Xrotation
					JOINT lForeArm
					{
						OFFSET 10.139888 0.000000 0.000000 
						CHANNELS 3 Yrotation Zrotation Xrotation
						JOINT lHand
						{
							OFFSET 8.370511 0.000000 0.000000 
							CHANNELS 3 Zrotation Yrotation Xrotation
							End Site
							{
								OFFSET 4.083176 0.000000 0.000000 
							}
						}
					}
				}
			}
			JOINT rCollar
			{
				OFFSET -3.470700 6.669187 -0.816635 
				CHANNELS 3 Yrotation Zrotation Xrotation
				JOINT rShldr
				{
					OFFSET -3.198488 0.000000 0.000000 
					CHANNELS 3 Zrotation Yrotation Xrotation
					JOINT rForeArm
					{
						OFFSET -10.139888 0.000000 0.000000 
						CHANNELS 3 Yrotation Zrotation Xrotation
						JOINT rHand
						{
							OFFSET -8.370511 0.000000 0.000000 
							CHANNELS 3 Zrotation Yrotation Xrotation
							End Site
							{
								OFFSET -4.083176 0.000000 0.000000 
							}
						}
					}
				}
			}
		}
	}
	JOINT lThigh
	{
		OFFSET 5.308129 -1.633274 1.361059 
		CHANNELS 3 Xrotation Zrotation Yrotation
		JOINT lShin
		{
			OFFSET -2.041588 -20.007561 0.000000 
			CHANNELS 3 Xrotation Zrotation Yrotation
			JOINT lFoot
			{
				OFFSET 0.000000 -19.190928 -1.224953 
				CHANNELS 3 Xrotation Yrotation Zrotation
				End Site
				{
					OFFSET 0.000000 -2.449906 4.627600 
				}
			}
		}
	}
	JOINT rThigh
	{
		OFFSET -5.308129 -1.633274 1.361059 
		CHANNELS 3 Xrotation Zrotation Yrotation
		JOINT rShin
		{
			OFFSET 2.041588 -20.007561 0.000000 
			CHANNELS 3 Xrotation Zrotation Yrotation
			JOINT rFoot
			{
				OFFSET 0.000000 -19.190928 -1.224953 
				CHANNELS 3 Xrotation Yrotation Zrotation
				End Site
				{
					OFFSET 0.000000 -2.449906 4.627600 
				}
			}
		}
	}
}
MOTION
Frames: 8
Frame Time: 0.033333
-3.890630 34.944969 -76.055252 7.363281 2.871094 3.789063 30.660566 -9.698592 -4.665598 -30.146488 6.582032 17.265625 -8.603516 0.000000 0.000000 1.806641 4.199218 -17.841799 2.000000 -2.000000 0.000000 -73.476563 20.986330 -53.798824 3.323702 -1.794122 0.031598 1.756760 -3.283567 0.058713 -2.000000 2.000000 0.000000 83.818359 8.769532 -35.525852 31.902935 1.759749 -0.048979 -1.786088 3.264010 0.057537 -8.579312 6.984171 19.484394 16.010172 -3.994527 -1.313661 -8.366575 -10.738529 0.008753 13.605357 -8.307522 -18.616463 -3.578619 4.142077 -0.154636 0.262287 0.324414 -0.003028 
-3.568956 34.853977 -75.240982 7.187500 2.949219 2.773438 30.660566 -9.698592 -4.665598 -30.664063 6.035157 18.632813 -8.603516 0.000000 0.000000 2.089844 4.853516 -18.613283 2.000000 -2.000000 0.000000 -73.496094 21.855471 -53.590115 3.431611 -1.792967 0.051089 1.756760 -3.283567 0.058713 -2.000000 2.000000 0.000000 83.369141 8.847656 -34.755859 33.484966 1.759749 -0.048979 -1.786088 3.264010 0.057537 -7.174857 6.069366 18.059412 15.666767 -4.003608 -1.250538 -9.535664 -8.520470 0.010930 14.281717 -8.660845 -18.119268 -3.056016 4.136233 -0.085923 -0.730276 0.528901 0.036896 
-3.206904 34.764946 -74.364426 6.962891 3.125000 1.592329 30.660566 -9.698592 -4.665598 -30.830080 5.175781 19.492189 -8.603516 0.000000 0.000000 1.865234 5.722656 -18.944286 2.000000 -2.000000 0.000000 -73.642570 21.806643 -53.355751 3.421828 -1.783218 0.050510 1.756760 -3.283567 0.058713 -2.000000 2.000000 0.000000 83.134766 9.003906 -34.383232 34.188087 1.759749 -0.048979 -1.786088 3.264010 0.057537 -5.692628 5.281916 16.895250 15.229940 -4.014098 -1.229020 -10.286149 -5.889937 0.012759 14.060299 -9.305818 -17.050322 -0.702713 4.133032 0.039827 -1.743076 0.133571 0.021476 
-2.819460 34.678596 -73.460518 6.757813 3.349610 0.342367 30.660566 -9.698592 -4.665598 -30.664063 4.160156 19.580080 -8.603516 0.000000 0.000000 1.347657 6.650391 -18.592623 2.000000 -2.000000 0.000000 -73.828125 20.839844 -53.101994 3.294387 -1.784374 0.031019 1.756760 -3.283567 0.058713 -2.000000 2.000000 0.000000 83.154297 9.179688 -34.277344 33.924419 1.759749 -0.048979 -1.786088 3.264010 0.057537 -4.108476 4.534975 16.550194 14.639482 -4.025157 -1.216124 -10.847280 -4.089210 0.024988 12.300045 -10.183074 -15.037778 4.330923 4.103862 0.401870 -1.909595 -1.373902 0.009691 
-2.431406 34.599331 -72.542076 6.611328 3.447199 -0.741623 30.660566 -9.698592 -4.665598 -30.234375 3.261719 18.652342 -8.603516 0.000000 0.000000 0.849609 7.666015 -17.529299 2.000000 -2.000000 0.000000 -73.964844 18.974611 -52.887447 3.147903 -1.784373 0.031020 1.756760 -3.283567 0.058713 -2.000000 2.000000 0.000000 83.496094 9.052734 -34.150394 32.801369 1.759749 -0.048979 -1.786088 3.264010 0.057537 -2.363049 3.895438 16.911198 13.843274 -4.045772 -1.120122 -11.433026 -3.425824 -0.013543 8.846422 -11.151934 -12.083986 12.300580 4.009989 1.002841 -0.744066 -3.665006 0.006202 
-2.071564 34.541317 -71.586266 6.445313 3.261719 -1.425781 30.660566 -9.698592 -4.665598 -29.570314 2.832031 16.591797 -8.603516 0.000000 0.000000 0.585936 8.681640 -15.800782 2.000000 -2.000000 0.000000 -73.916016 16.152344 -52.682827 3.147903 -1.784373 0.031020 1.756760 -3.283567 0.058713 -2.000000 2.000000 0.000000 84.052734 8.320313 -33.945313 31.062843 1.759172 -0.039234 -1.786088 3.264010 0.057537 -0.400461 3.525710 17.460192 12.789391 -4.049841 -1.081450 -12.160404 -3.483787 -0.000836 4.087225 -11.974189 -9.063867 22.348091 3.766492 1.686634 1.723945 -5.502319 0.010507 
-1.761223 34.520924 -70.546417 6.181641 2.558594 -1.533203 30.660566 -9.698592 -4.665598 -28.720703 3.232422 13.525941 -8.603516 0.000000 0.000000 0.761719 9.648438 -13.603517 2.000000 -2.000000 0.000000 -73.574219 12.382813 -52.478371 3.431611 -1.792967 0.051089 1.756760 -3.283567 0.058713 -2.000000 2.000000 0.000000 84.550781 6.875000 -34.256645 28.640968 1.759172 -0.039234 -1.786088 3.264010 0.057537 1.821784 3.712174 17.370489 11.475247 -4.070237 -0.966970 -13.011956 -3.518262 0.008655 -0.986503 -12.407433 -7.146006 32.527088 3.444815 2.327963 4.717241 -5.279619 -0.019994 
-1.506881 34.540462 -69.385300 5.839844 1.279275 -1.122851 30.660566 -9.698592 -4.665598 -27.861330 4.775391 9.687501 -8.603516 0.000000 0.000000 1.396484 10.244141 -11.103516 2.000000 -2.000000 0.000000 -73.007813 7.900391 -52.244747 3.871047 -1.783218 0.050510 1.756760 -3.283567 0.058713 -2.000000 2.000000 0.000000 84.404297 4.931641 -36.269531 24.988136 1.758017 -0.019743 -1.786088 3.264010 0.057537 4.183837 4.584771 16.412287 10.065742 -4.097546 -0.844759 -13.825767 -3.090786 -0.001290 -5.692438 -12.369121 -6.992699 40.675625 3.046183 2.758395 7.112408 -1.997969 0.003529 
